<?xml version="1.0" encoding="utf-8"?><svg viewBox="0 0 48 48" xmlns="http://www.w3.org/2000/svg" xmlns:xlink="http://www.w3.org/1999/xlink"><style>:root>svg{display:none}:root>svg:target{display:block}</style><svg viewBox="0 0 550 550" id="facebook" xmlns="http://www.w3.org/2000/svg"><circle cx="275" cy="275" r="275"/><path d="M236.1 190.8v40.4h-29.6v49.4h29.6V416h60.8V280.5h40.8s3.8-23.7 5.7-49.6h-46.2v-33.8c0-5 6.6-11.8 13.2-11.8h33.1v-51.4h-45c-63.9.1-62.4 49.5-62.4 56.9z"/></svg><svg viewBox="0 0 48 48" id="instagram" xmlns="http://www.w3.org/2000/svg"><path fill-rule="evenodd" clip-rule="evenodd" d="M0 24C0 10.745 10.745 0 24 0s24 10.745 24 24-10.745 24-24 24S0 37.255 0 24zm24.001-12.8c-3.476 0-3.912.015-5.278.077-1.362.063-2.293.279-3.106.595a6.268 6.268 0 00-2.268 1.476 6.284 6.284 0 00-1.477 2.267c-.318.814-.534 1.745-.595 3.107-.061 1.365-.077 1.802-.077 5.278 0 3.476.016 3.911.077 5.277.063 1.362.279 2.293.595 3.106a6.271 6.271 0 001.476 2.268 6.268 6.268 0 002.267 1.477c.814.317 1.745.532 3.107.595 1.366.062 1.802.077 5.278.077 3.476 0 3.911-.015 5.276-.077 1.363-.063 2.294-.278 3.109-.595a6.263 6.263 0 002.266-1.477 6.284 6.284 0 001.477-2.267c.315-.814.53-1.745.595-3.107.061-1.365.077-1.8.077-5.277 0-3.476-.016-3.912-.077-5.278-.064-1.363-.28-2.293-.595-3.107a6.283 6.283 0 00-1.477-2.267 6.256 6.256 0 00-2.267-1.476c-.816-.316-1.747-.532-3.11-.595-1.365-.062-1.8-.077-5.277-.077h.004z"/><path fill-rule="evenodd" clip-rule="evenodd" d="M22.853 13.507H24c3.418 0 3.823.012 5.172.073 1.249.057 1.926.266 2.377.441.597.232 1.023.51 1.471.957.448.448.725.875.958 1.473.175.45.384 1.127.44 2.375.062 1.35.075 1.755.075 5.171 0 3.416-.013 3.822-.074 5.17-.057 1.249-.266 1.926-.441 2.377a3.958 3.958 0 01-.958 1.47 3.958 3.958 0 01-1.47.958c-.452.176-1.13.384-2.377.44-1.35.062-1.755.075-5.173.075s-3.823-.013-5.172-.074c-1.248-.058-1.925-.266-2.377-.442a3.964 3.964 0 01-1.472-.957 3.967 3.967 0 01-.958-1.471c-.175-.45-.384-1.128-.44-2.376-.062-1.35-.074-1.755-.074-5.173s.012-3.821.073-5.17c.057-1.249.266-1.926.441-2.377.232-.598.51-1.024.958-1.472a3.973 3.973 0 011.472-.958c.451-.176 1.129-.384 2.377-.441 1.18-.054 1.638-.07 4.024-.072v.003zm7.98 2.125a1.536 1.536 0 100 3.072 1.536 1.536 0 000-3.072zm-6.832 1.795a6.574 6.574 0 100 13.147 6.574 6.574 0 000-13.147z"/><path fill-rule="evenodd" clip-rule="evenodd" d="M24.001 19.733a4.267 4.267 0 110 8.534 4.267 4.267 0 010-8.534z"/></svg><svg viewBox="0 0 48 48" id="linkedin" xmlns="http://www.w3.org/2000/svg"><path d="M0 24C0 10.745 10.745 0 24 0s24 10.745 24 24-10.745 24-24 24S0 37.255 0 24zm16.96-4.122h-5.438V36.22h5.438V19.878zm.359-5.055C17.284 13.22 16.138 12 14.277 12c-1.86 0-3.077 1.22-3.077 2.823 0 1.569 1.18 2.824 3.006 2.824h.035c1.897 0 3.078-1.255 3.078-2.824zM36.575 26.85c0-5.02-2.683-7.356-6.262-7.356-2.888 0-4.18 1.586-4.902 2.699v-2.315h-5.44c.072 1.534 0 16.342 0 16.342h5.44v-9.127c0-.488.035-.975.179-1.325.393-.976 1.288-1.986 2.79-1.986 1.97 0 2.757 1.499 2.757 3.695v8.743h5.438v-9.37z"/></svg><svg viewBox="0 0 112.197 112.197" id="twitter" xmlns="http://www.w3.org/2000/svg"><circle cx="56.099" cy="56.098" r="56.098"/><path d="M90.461 40.316a26.753 26.753 0 01-7.702 2.109 13.445 13.445 0 005.897-7.417 26.843 26.843 0 01-8.515 3.253 13.396 13.396 0 00-9.79-4.233c-7.404 0-13.409 6.005-13.409 13.409 0 1.051.119 2.074.349 3.056-11.144-.559-21.025-5.897-27.639-14.012a13.351 13.351 0 00-1.816 6.742c0 4.651 2.369 8.757 5.965 11.161a13.314 13.314 0 01-6.073-1.679l-.001.17c0 6.497 4.624 11.916 10.757 13.147a13.362 13.362 0 01-3.532.471c-.866 0-1.705-.083-2.523-.239 1.706 5.326 6.657 9.203 12.526 9.312a26.904 26.904 0 01-16.655 5.74c-1.08 0-2.15-.063-3.197-.188a37.929 37.929 0 0020.553 6.025c24.664 0 38.152-20.432 38.152-38.153 0-.581-.013-1.16-.039-1.734a27.192 27.192 0 006.692-6.94z"/></svg><svg viewBox="0 0 48 48" id="youtube" xmlns="http://www.w3.org/2000/svg"><path d="M0 24C0 10.745 10.745 0 24 0s24 10.745 24 24-10.745 24-24 24S0 37.255 0 24zm36.265-5.927c-.294-1.13-1.162-2.021-2.263-2.324C32.005 15.2 24 15.2 24 15.2s-8.005 0-10.002.55c-1.101.302-1.969 1.192-2.263 2.323-.535 2.05-.535 6.327-.535 6.327s0 4.277.535 6.327c.294 1.13 1.162 2.021 2.263 2.324C15.995 33.6 24 33.6 24 33.6s8.005 0 10.002-.55c1.101-.302 1.969-1.192 2.263-2.323.535-2.05.535-6.327.535-6.327s0-4.277-.535-6.327z"/><path d="M21.6 28.8v-8l6.4 4-6.4 4z"/></svg></svg>