<?xml version="1.0" encoding="utf-8"?><svg viewBox="0 0 48 48" xmlns="http://www.w3.org/2000/svg" xmlns:xlink="http://www.w3.org/1999/xlink"><style>:root>svg{display:none}:root>svg:target{display:block}</style><svg fill="none" viewBox="0 0 8 14" id="facebook" xmlns="http://www.w3.org/2000/svg"><path fill-rule="evenodd" clip-rule="evenodd" d="M6.703 3.284a7.01 7.01 0 00-1.185-.13c-.852 0-.907.371-.907.963v1.055H6.74l-.186 2.184H4.611V14H1.946V7.356H.576V5.172h1.37V3.82C1.946 1.97 2.816.933 5 .933c.758 0 1.314.111 2.035.26l-.332 2.091z" fill="#fff"/></svg><svg viewBox="0 0 48 48" id="getStarted" xmlns="http://www.w3.org/2000/svg"><path d="M23.4 36q-4.8-.25-8.1-3.7T12 24q0-5 3.5-8.5T24 12q4.85 0 8.3 3.3 3.45 3.3 3.7 8.15l-3.15-1q-.55-3.2-3-5.325T24 15q-3.75 0-6.375 2.625T15 24q0 3.35 2.125 5.825t5.325 3.025zm.6 8q-4.15 0-7.8-1.575-3.65-1.575-6.35-4.275-2.7-2.7-4.275-6.35Q4 28.15 4 24t1.575-7.8Q7.15 12.55 9.85 9.85q2.7-2.7 6.35-4.275Q19.85 4 24 4t7.8 1.575q3.65 1.575 6.35 4.275 2.7 2.7 4.275 6.35Q44 19.85 44 24q0 .45-.025.9t-.075.9l-2.9-.9V24q0-7.1-4.95-12.05Q31.1 7 24 7q-7.1 0-12.05 4.95Q7 16.9 7 24q0 7.1 4.95 12.05Q16.9 41 24 41h.9l.9 2.9q-.45.05-.9.075-.45.025-.9.025zm17.05 1l-8.55-8.55L30 44l-6-20 20 6-7.55 2.5L45 41.05z" fill="#3E3E3E"/></svg><svg fill="none" viewBox="0 0 14 13" id="group" xmlns="http://www.w3.org/2000/svg"><path d="M1 6.25h12M7.75 1L13 6.25 7.75 11.5" stroke="#fff" stroke-width="1.5" stroke-linecap="round" stroke-linejoin="round"/></svg><svg fill="none" viewBox="0 0 16 16" id="linkedin" xmlns="http://www.w3.org/2000/svg"><path fill-rule="evenodd" clip-rule="evenodd" d="M3.952 2.554c0 .87-.663 1.575-1.7 1.575-.996 0-1.66-.705-1.639-1.575-.02-.914.643-1.598 1.66-1.598 1.016 0 1.66.684 1.68 1.598zM.697 15.517V5.374h3.152v10.143H.697zM6.376 8.611a67.61 67.61 0 00-.083-3.236H9.03l.145 1.39h.063c.414-.643 1.451-1.617 3.131-1.617 2.074 0 3.63 1.369 3.63 4.354v6.017h-3.152V9.897c0-1.307-.456-2.199-1.597-2.199-.872 0-1.39.602-1.597 1.182-.083.208-.124.498-.124.79v5.849H6.377V8.61h-.001z" fill="#fff"/></svg><svg viewBox="0 0 48 48" id="menu" xmlns="http://www.w3.org/2000/svg"><path d="M6 36v-3h36v3zm0-10.5v-3h36v3zM6 15v-3h36v3z" fill="#3E3E3E"/></svg><svg fill="none" viewBox="0 0 15 13" id="quotes" xmlns="http://www.w3.org/2000/svg"><path d="M8.632.512h4.272c.31 0 .57.107.784.32.213.213.32.475.32.784v3.872c0 1.835-.384 3.28-1.152 4.336-.619.864-1.595 1.648-2.928 2.352a1.02 1.02 0 01-.848.048 1.071 1.071 0 01-.656-.56l-.368-.704a1.034 1.034 0 01-.08-.816c.096-.288.272-.507.528-.656.63-.363 1.093-.725 1.392-1.088.235-.288.405-.581.512-.88a.623.623 0 000-.48.78.78 0 00-.336-.384 1.037 1.037 0 00-.544-.144h-.896c-.31 0-.57-.107-.784-.32a1.047 1.047 0 01-.32-.768V1.616c0-.31.107-.57.32-.784.224-.213.485-.32.784-.32zm-7.536 0h4.272c.31 0 .57.107.784.32.213.213.32.475.32.784v3.872c0 1.835-.384 3.28-1.152 4.336-.619.864-1.595 1.648-2.928 2.352a1.02 1.02 0 01-.848.048 1.13 1.13 0 01-.656-.56L.52 10.96a1.034 1.034 0 01-.08-.816c.096-.288.272-.507.528-.656.65-.373 1.115-.736 1.392-1.088.235-.288.405-.581.512-.88a.623.623 0 000-.48.78.78 0 00-.336-.384 1.037 1.037 0 00-.544-.144h-.896c-.299 0-.555-.107-.768-.32a1.047 1.047 0 01-.32-.768V1.616c0-.31.107-.57.32-.784.213-.213.47-.32.768-.32z" fill="#fff"/></svg><svg fill="none" viewBox="0 0 33 37" id="search" xmlns="http://www.w3.org/2000/svg"><path d="M25.793 12.795c1.594 5.902-1.898 11.98-7.8 13.573-5.903 1.595-11.98-1.898-13.574-7.8-1.594-5.902 1.898-11.98 7.8-13.573 5.903-1.595 11.98 1.898 13.574 7.8z" stroke="#fff" stroke-width="2.5"/><path d="M20.87 14.976a6.57 6.57 0 00-8.056-4.63M27.466 26.806l3.833 3.881" stroke="#fff" stroke-width="2.5" stroke-linecap="round"/></svg><svg fill="none" viewBox="0 0 18 14" id="twitter" xmlns="http://www.w3.org/2000/svg"><path fill-rule="evenodd" clip-rule="evenodd" d="M17.275 2.142a6.779 6.779 0 01-1.95.535A3.404 3.404 0 0016.817.798a6.799 6.799 0 01-2.155.824A3.396 3.396 0 008.876 4.72a9.638 9.638 0 01-6.998-3.547 3.377 3.377 0 00-.46 1.706c0 1.178.599 2.218 1.51 2.827A3.385 3.385 0 011.39 5.28v.042a3.4 3.4 0 002.723 3.33 3.412 3.412 0 01-1.533.058 3.4 3.4 0 003.172 2.359 6.814 6.814 0 01-5.027 1.405A9.613 9.613 0 005.929 14c6.245 0 9.66-5.174 9.66-9.66 0-.148-.002-.294-.01-.44a6.915 6.915 0 001.696-1.758z" fill="#fff"/></svg></svg>