<svg width="22" height="15" viewBox="0 0 15 15" fill="none" xmlns="http://www.w3.org/2000/svg">
<path fill-rule="evenodd" clip-rule="evenodd" d="M14.8153 5.74055C14.7235 5.45627 14.4713 5.25384 14.1738 5.22553L10.0954 4.85249L8.48982 1.08853C8.37202 0.812147 8.10061 0.632812 7.80023 0.632812C7.49974 0.632812 7.22833 0.812147 7.11052 1.08853L5.50121 4.85249L1.42842 5.2191C1.12625 5.24388 0.868717 5.44794 0.775525 5.73641C0.682334 6.02482 0.771722 6.34103 1.00218 6.53793L4.08063 9.2369L3.17333 13.2337C3.10665 13.5263 3.22088 13.8304 3.46376 14.0068C3.70652 14.1831 4.03107 14.1977 4.28872 14.0439L7.80426 11.9451L11.3144 14.0448C11.5722 14.1983 11.8966 14.1836 12.1394 14.0073C12.3822 13.8311 12.4967 13.5272 12.4307 13.2346L11.5234 9.23785L14.6017 6.53883C14.8278 6.34087 14.914 6.02717 14.8208 5.7415L14.8153 5.74055Z" fill="url(#paint0_linear_1_145)"/>
<defs>
<linearGradient id="paint0_linear_1_145" x1="7.7985" y1="0.632812" x2="7.7985" y2="14.1505" gradientUnits="userSpaceOnUse">
<stop stop-color="#FFD056"/>
<stop offset="0.744792" stop-color="#F8C14F"/>
<stop offset="1" stop-color="#F7B73B"/>
</linearGradient>
</defs>
</svg>
