<svg width="15" height="13" viewBox="0 0 15 13" fill="none" xmlns="http://www.w3.org/2000/svg">
<path d="M8.632 0.511999H12.904C13.2133 0.511999 13.4747 0.618666 13.688 0.832C13.9013 1.04533 14.008 1.30667 14.008 1.616V5.488C14.008 7.32267 13.624 8.768 12.856 9.824C12.2373 10.688 11.2613 11.472 9.928 12.176C9.66133 12.3147 9.37867 12.3307 9.08 12.224C8.78133 12.128 8.56267 11.9413 8.424 11.664L8.056 10.96C7.91733 10.704 7.89067 10.432 7.976 10.144C8.072 9.856 8.248 9.63733 8.504 9.488C9.13333 9.12533 9.59733 8.76267 9.896 8.4C10.1307 8.112 10.3013 7.81867 10.408 7.52C10.472 7.34933 10.472 7.18933 10.408 7.04C10.344 6.88 10.232 6.752 10.072 6.656C9.912 6.56 9.73067 6.512 9.528 6.512H8.632C8.32267 6.512 8.06133 6.40533 7.848 6.192C7.63467 5.97867 7.528 5.72267 7.528 5.424V1.616C7.528 1.30667 7.63467 1.04533 7.848 0.832C8.072 0.618666 8.33333 0.511999 8.632 0.511999ZM1.096 0.511999H5.368C5.67733 0.511999 5.93867 0.618666 6.152 0.832C6.36533 1.04533 6.472 1.30667 6.472 1.616V5.488C6.472 7.32267 6.088 8.768 5.32 9.824C4.70133 10.688 3.72533 11.472 2.392 12.176C2.12533 12.3147 1.84267 12.3307 1.544 12.224C1.256 12.128 1.03733 11.9413 0.888 11.664L0.52 10.96C0.381333 10.704 0.354667 10.432 0.44 10.144C0.536 9.856 0.712 9.63733 0.968 9.488C1.61867 9.11467 2.08267 8.752 2.36 8.4C2.59467 8.112 2.76533 7.81867 2.872 7.52C2.936 7.34933 2.936 7.18933 2.872 7.04C2.808 6.88 2.696 6.752 2.536 6.656C2.376 6.56 2.19467 6.512 1.992 6.512H1.096C0.797333 6.512 0.541333 6.40533 0.328 6.192C0.114667 5.97867 0.00800002 5.72267 0.00800002 5.424V1.616C0.00800002 1.30667 0.114667 1.04533 0.328 0.832C0.541333 0.618666 0.797333 0.511999 1.096 0.511999Z" fill="white"/>
</svg>
